<svg width="35" height="35" viewBox="0 0 35 35" fill="none" xmlns="http://www.w3.org/2000/svg">
<path d="M0 35V12.5772C0 5.64272 4.30966 0 9.60587 0H25.3918C30.6892 0 35 5.64272 35 12.5772V16.4447C35 23.3792 30.6903 29.0219 25.3941 29.0219H9.82857L0 35ZM9.35664 3.04348C7.37764 3.04628 5.35098 4.25474 3.95161 6.08696C2.55225 7.91918 2.2602 10.554 2.25806 13.1451L1.69355 31.9565L9.35664 26.6304H17.4983H25.4032C27.3822 26.6276 30.2135 25.4192 31.6129 23.587C33.0123 21.7547 33.3043 19.0359 33.3064 16.4447V11.413C33.304 8.8215 31.8837 7.15831 30.4839 5.32609C29.0841 3.49387 27.3711 3.04588 25.3918 3.04348H9.35664ZM10.312 12.3641C10.8522 12.3641 11.3702 12.6451 11.7521 13.1451C12.134 13.6452 12.3486 14.3234 12.3486 15.0306C12.3486 15.7378 12.134 16.4161 11.7521 16.9162C11.3702 17.4162 10.8522 17.6972 10.312 17.6972C9.77191 17.6972 9.2539 17.4162 8.87197 16.9162C8.49004 16.4161 8.27548 15.7378 8.27548 15.0306C8.27548 14.3234 8.49004 13.6452 8.87197 13.1451C9.2539 12.6451 9.77191 12.3641 10.312 12.3641ZM24.6868 12.3641C25.2269 12.3641 25.7449 12.6451 26.1269 13.1451C26.5088 13.6452 26.7234 14.3234 26.7234 15.0306C26.7234 15.7378 26.5088 16.4161 26.1269 16.9162C25.7449 17.4162 25.2269 17.6972 24.6868 17.6972C24.1467 17.6972 23.6287 17.4162 23.2467 16.9162C22.8648 16.4161 22.6502 15.7378 22.6502 15.0306C22.6502 14.3234 22.8648 13.6452 23.2467 13.1451C23.6287 12.6451 24.1467 12.3641 24.6868 12.3641ZM17.4983 12.3641C18.0384 12.3641 18.5564 12.6451 18.9383 13.1451C19.3203 13.6452 19.5348 14.3234 19.5348 15.0306C19.5348 15.7378 19.3203 16.4161 18.9383 16.9162C18.5564 17.4162 18.0384 17.6972 17.4983 17.6972C16.9581 17.6972 16.4401 17.4162 16.0582 16.9162C15.6763 16.4161 15.4617 15.7378 15.4617 15.0306C15.4617 14.3234 15.6763 13.6452 16.0582 13.1451C16.4401 12.6451 16.9581 12.3641 17.4983 12.3641Z" fill="#214E8A"/>
</svg>
