<svg width="35" height="35" viewBox="0 0 35 35" fill="none" xmlns="http://www.w3.org/2000/svg">
<path d="M1.16667 34.9988C1.07771 34.9988 0.987875 34.987 0.898917 34.9634C0.643156 34.8934 0.415319 34.726 0.25221 34.4881C0.0891021 34.2503 0.00024748 33.956 0 33.6527C0 21.4205 1.34108 11.2473 17.5 10.7846V1.34595C17.5 1.08424 17.5662 0.82821 17.6903 0.609196C17.8145 0.390182 17.9913 0.217683 18.1992 0.112808C18.407 0.00793232 18.6368 -0.0247711 18.8605 0.0187001C19.0841 0.0621712 19.292 0.179931 19.4585 0.35757L34.6252 16.5109C34.8644 16.7643 35 17.1234 35 17.4993C35 17.8752 34.8644 18.2343 34.6252 18.488L19.4585 34.6414C19.2922 34.8197 19.0842 34.9379 18.8603 34.9814C18.6364 35.0249 18.4063 34.9917 18.1985 34.886C17.9909 34.781 17.8142 34.6084 17.6901 34.3893C17.5661 34.1703 17.5 33.9143 17.5 33.6527V24.2457C6.4155 24.5519 4.37033 29.2701 2.21025 34.2547C2.1134 34.4784 1.96445 34.6665 1.78011 34.7979C1.59578 34.9293 1.38335 34.9989 1.16667 34.9988ZM18.6667 21.5376C19.3115 21.5376 19.8333 22.1397 19.8333 22.8838V30.5778L32.1131 17.4993L19.8333 4.42081V12.1149C19.8333 12.8589 19.3115 13.461 18.6667 13.461C5.7785 13.461 3.00329 19.2122 2.45758 28.3985C4.87404 24.6532 8.99267 21.5376 18.6667 21.5376Z" fill="#214E8A"/>
</svg>
