<svg width="35" height="35" viewBox="0 0 35 35" fill="none" xmlns="http://www.w3.org/2000/svg">
<path d="M17.6829 33.6727C17.6179 33.7177 17.5569 33.7596 17.5 33.7985C17.4431 33.7596 17.3821 33.7177 17.3171 33.6727C16.8503 33.3497 16.18 32.8709 15.3741 32.2529C13.7607 31.0157 11.6121 29.227 9.46711 27.0199C5.13828 22.566 1 16.5892 1 10.1152C1 4.86036 4.53209 1 8.75 1C10.8276 1 12.7804 2.21488 14.2943 3.57652C15.0356 4.24331 15.6356 4.91296 16.0501 5.4164C16.2568 5.66738 16.4158 5.87513 16.5216 6.01798C16.5745 6.08935 16.614 6.14437 16.6395 6.18031L16.667 6.21951L16.6726 6.22771L16.6728 6.22795L16.6731 6.22836L16.6733 6.22865L16.6734 6.22884L17.5 7.4458L18.3266 6.22884L18.3267 6.22865L18.3269 6.22836L18.3272 6.22795L18.3274 6.22771L18.333 6.21951L18.3605 6.18031C18.386 6.14437 18.4255 6.08935 18.4784 6.01798C18.5842 5.87513 18.7432 5.66738 18.9499 5.4164C19.3644 4.91296 19.9644 4.24331 20.7057 3.57652C22.2196 2.21488 24.1724 1 26.25 1C30.4679 1 34 4.86036 34 10.1152C34 16.5892 29.8617 22.566 25.5329 27.0199C23.3879 29.227 21.2393 31.0157 19.6259 32.2529C18.82 32.8709 18.1497 33.3497 17.6829 33.6727Z" stroke="#214E8A" stroke-width="2"/>
</svg>
