<svg width="27" height="27" viewBox="0 0 27 27" fill="none" xmlns="http://www.w3.org/2000/svg">
<mask id="path-1-inside-1_912_8211" fill="white">
<path d="M14.6186 19.094L11.2628 22.4481C10.3718 23.3369 9.16465 23.836 7.90615 23.836C6.64765 23.836 5.44053 23.3369 4.54953 22.4481C3.66161 21.557 3.16306 20.3503 3.16306 19.0924C3.16306 17.8344 3.66161 16.6278 4.54953 15.7366L7.90694 12.3809C8.05806 12.235 8.17859 12.0604 8.26151 11.8673C8.34444 11.6743 8.38808 11.4667 8.38991 11.2566C8.39173 11.0466 8.3517 10.8382 8.27215 10.6438C8.19259 10.4493 8.07511 10.2727 7.92655 10.1241C7.778 9.97558 7.60134 9.8581 7.4069 9.77855C7.21245 9.699 7.00411 9.65897 6.79402 9.66079C6.58394 9.66262 6.37633 9.70627 6.18329 9.78918C5.99026 9.8721 5.81567 9.99263 5.66972 10.1437L2.3123 13.4995C0.831546 14.9842 0 16.9955 0 19.0924C0 21.1893 0.831546 23.2006 2.3123 24.6853C3.04606 25.4206 3.91793 26.0037 4.87778 26.4009C5.83764 26.7981 6.86655 27.0017 7.90536 27C8.94431 27.0021 9.97343 26.7988 10.9336 26.4018C11.8937 26.0048 12.7659 25.422 13.5 24.6869L16.8558 21.3311C17.007 21.1852 17.1275 21.0106 17.2104 20.8176C17.2933 20.6245 17.337 20.4169 17.3388 20.2069C17.3406 19.9968 17.3006 19.7884 17.221 19.594C17.1415 19.3996 17.024 19.2229 16.8754 19.0744C16.7269 18.9258 16.5502 18.8083 16.3558 18.7288C16.1613 18.6492 15.953 18.6092 15.7429 18.611C15.5328 18.6128 15.3252 18.6565 15.1322 18.7394C14.9391 18.8223 14.7646 18.9429 14.6186 19.094ZM13.5 2.31368L10.1442 5.66784C9.99305 5.81379 9.87251 5.98837 9.78959 6.1814C9.70667 6.37443 9.66303 6.58204 9.6612 6.79212C9.65937 7.00219 9.69941 7.21053 9.77896 7.40497C9.85851 7.59941 9.976 7.77606 10.1246 7.92461C10.2731 8.07316 10.4498 8.19065 10.6442 8.2702C10.8387 8.34975 11.047 8.38978 11.2571 8.38796C11.4672 8.38613 11.6748 8.34248 11.8678 8.25957C12.0608 8.17665 12.2354 8.05611 12.3814 7.905L15.7372 4.55084C16.6282 3.66208 17.8353 3.16297 19.0938 3.16297C20.3523 3.16297 21.5595 3.66208 22.4505 4.55084C23.3384 5.44196 23.8369 6.64864 23.8369 7.90659C23.8369 9.16453 23.3384 10.3712 22.4505 11.2623L19.0931 14.6181C18.9419 14.764 18.8214 14.9386 18.7385 15.1316C18.6556 15.3247 18.6119 15.5323 18.6101 15.7423C18.6083 15.9524 18.6483 16.1608 18.7279 16.3552C18.8074 16.5496 18.9249 16.7263 19.0734 16.8748C19.222 17.0234 19.3987 17.1409 19.5931 17.2204C19.7875 17.3 19.9959 17.34 20.206 17.3382C20.4161 17.3364 20.6237 17.2927 20.8167 17.2098C21.0097 17.1269 21.1843 17.0063 21.3303 16.8552L24.6877 13.4995C26.1685 12.0148 27 10.0035 27 7.90659C27 5.80971 26.1685 3.7984 24.6877 2.31368C23.2031 0.832096 21.1913 0 19.0938 0C16.9964 0 14.9846 0.832096 13.5 2.31368Z"/>
</mask>
<path d="M14.6186 19.094L11.2628 22.4481C10.3718 23.3369 9.16465 23.836 7.90615 23.836C6.64765 23.836 5.44053 23.3369 4.54953 22.4481C3.66161 21.557 3.16306 20.3503 3.16306 19.0924C3.16306 17.8344 3.66161 16.6278 4.54953 15.7366L7.90694 12.3809C8.05806 12.235 8.17859 12.0604 8.26151 11.8673C8.34444 11.6743 8.38808 11.4667 8.38991 11.2566C8.39173 11.0466 8.3517 10.8382 8.27215 10.6438C8.19259 10.4493 8.07511 10.2727 7.92655 10.1241C7.778 9.97558 7.60134 9.8581 7.4069 9.77855C7.21245 9.699 7.00411 9.65897 6.79402 9.66079C6.58394 9.66262 6.37633 9.70627 6.18329 9.78918C5.99026 9.8721 5.81567 9.99263 5.66972 10.1437L2.3123 13.4995C0.831546 14.9842 0 16.9955 0 19.0924C0 21.1893 0.831546 23.2006 2.3123 24.6853C3.04606 25.4206 3.91793 26.0037 4.87778 26.4009C5.83764 26.7981 6.86655 27.0017 7.90536 27C8.94431 27.0021 9.97343 26.7988 10.9336 26.4018C11.8937 26.0048 12.7659 25.422 13.5 24.6869L16.8558 21.3311C17.007 21.1852 17.1275 21.0106 17.2104 20.8176C17.2933 20.6245 17.337 20.4169 17.3388 20.2069C17.3406 19.9968 17.3006 19.7884 17.221 19.594C17.1415 19.3996 17.024 19.2229 16.8754 19.0744C16.7269 18.9258 16.5502 18.8083 16.3558 18.7288C16.1613 18.6492 15.953 18.6092 15.7429 18.611C15.5328 18.6128 15.3252 18.6565 15.1322 18.7394C14.9391 18.8223 14.7646 18.9429 14.6186 19.094ZM13.5 2.31368L10.1442 5.66784C9.99305 5.81379 9.87251 5.98837 9.78959 6.1814C9.70667 6.37443 9.66303 6.58204 9.6612 6.79212C9.65937 7.00219 9.69941 7.21053 9.77896 7.40497C9.85851 7.59941 9.976 7.77606 10.1246 7.92461C10.2731 8.07316 10.4498 8.19065 10.6442 8.2702C10.8387 8.34975 11.047 8.38978 11.2571 8.38796C11.4672 8.38613 11.6748 8.34248 11.8678 8.25957C12.0608 8.17665 12.2354 8.05611 12.3814 7.905L15.7372 4.55084C16.6282 3.66208 17.8353 3.16297 19.0938 3.16297C20.3523 3.16297 21.5595 3.66208 22.4505 4.55084C23.3384 5.44196 23.8369 6.64864 23.8369 7.90659C23.8369 9.16453 23.3384 10.3712 22.4505 11.2623L19.0931 14.6181C18.9419 14.764 18.8214 14.9386 18.7385 15.1316C18.6556 15.3247 18.6119 15.5323 18.6101 15.7423C18.6083 15.9524 18.6483 16.1608 18.7279 16.3552C18.8074 16.5496 18.9249 16.7263 19.0734 16.8748C19.222 17.0234 19.3987 17.1409 19.5931 17.2204C19.7875 17.3 19.9959 17.34 20.206 17.3382C20.4161 17.3364 20.6237 17.2927 20.8167 17.2098C21.0097 17.1269 21.1843 17.0063 21.3303 16.8552L24.6877 13.4995C26.1685 12.0148 27 10.0035 27 7.90659C27 5.80971 26.1685 3.7984 24.6877 2.31368C23.2031 0.832096 21.1913 0 19.0938 0C16.9964 0 14.9846 0.832096 13.5 2.31368Z" fill="#214E8A"/>
<path d="M14.6186 19.094L25.9295 30.4105L26.0292 30.3109L26.1271 30.2095L14.6186 19.094ZM11.2628 22.4481L22.5622 33.7761L22.5679 33.7704L22.5737 33.7647L11.2628 22.4481ZM4.54953 22.4481L-6.78452 33.7415L-6.76725 33.7588L-6.74992 33.7761L4.54953 22.4481ZM4.54953 15.7366L-6.76136 4.42012L-6.77295 4.4317L-6.78452 4.44331L4.54953 15.7366ZM7.90694 12.3809L-3.20829 0.872144L-3.30694 0.967422L-3.40394 1.06438L7.90694 12.3809ZM5.66972 10.1437L16.9806 21.4603L17.0803 21.3607L17.1782 21.2593L5.66972 10.1437ZM2.3123 13.4995L-8.99858 2.18296L-9.00755 2.19192L-9.0165 2.20089L2.3123 13.4995ZM0 19.0924H-16H0ZM2.3123 24.6853L-9.0165 35.9839L-9.01348 35.9869L2.3123 24.6853ZM7.90536 27L7.93736 11L7.90789 11L7.87843 11L7.90536 27ZM13.5 24.6869L2.18645 13.373L2.17835 13.3811L13.5 24.6869ZM16.8558 21.3311L5.7406 9.82237L5.6406 9.91896L5.54229 10.0173L16.8558 21.3311ZM13.5 2.31368L2.19785 -9.01158L2.18912 -9.00285L13.5 2.31368ZM10.1442 5.66784L21.2594 17.1766L21.358 17.0813L21.455 16.9844L10.1442 5.66784ZM10.1246 7.92461L21.4381 -3.38925L10.1246 7.92461ZM12.3814 7.905L1.0705 -3.41153L0.970831 -3.31191L0.87293 -3.21054L12.3814 7.905ZM15.7372 4.55084L4.43778 -6.77711L4.43205 -6.7714L4.42634 -6.76569L15.7372 4.55084ZM22.4505 4.55084L33.7845 -6.74249L33.7672 -6.75983L33.7499 -6.77711L22.4505 4.55084ZM22.4505 11.2623L33.7614 22.5789L33.773 22.5673L33.7845 22.5557L22.4505 11.2623ZM19.0931 14.6181L30.2083 26.1268L30.3069 26.0316L30.4039 25.9346L19.0931 14.6181ZM21.3303 16.8552L10.0194 5.5387L9.91972 5.63832L9.82182 5.73968L21.3303 16.8552ZM24.6877 13.4995L35.9986 24.816L36.0075 24.8071L36.0165 24.7981L24.6877 13.4995ZM24.6877 2.31368L36.0165 -8.98492L36.0032 -8.99826L35.9898 -9.01158L24.6877 2.31368ZM19.0938 0V16V0ZM3.30773 7.77744L-0.0481088 11.1316L22.5737 33.7647L25.9295 30.4105L3.30773 7.77744ZM-0.0366672 11.1202C2.0718 9.01702 4.92825 7.836 7.90615 7.836V39.836C13.4011 39.836 18.6718 37.6568 22.5622 33.7761L-0.0366672 11.1202ZM7.90615 7.836C10.8841 7.836 13.7405 9.01702 15.849 11.1202L-6.74992 33.7761C-2.85945 37.6568 2.41125 39.836 7.90615 39.836V7.836ZM15.8836 11.1548C17.9837 13.2625 19.1631 16.1168 19.1631 19.0924H-12.8369C-12.8369 24.5839 -10.6605 29.8515 -6.78452 33.7415L15.8836 11.1548ZM19.1631 19.0924C19.1631 22.068 17.9837 24.9222 15.8836 27.03L-6.78452 4.44331C-10.6605 8.33329 -12.8369 13.6009 -12.8369 19.0924H19.1631ZM15.8604 27.0532L19.2178 23.6974L-3.40394 1.06438L-6.76136 4.42012L15.8604 27.0532ZM19.0222 23.8897C20.7015 22.2678 22.041 20.3277 22.9625 18.1826L-6.43943 5.55212C-5.68378 3.79307 -4.58537 2.20214 -3.20829 0.872144L19.0222 23.8897ZM22.9625 18.1826C23.884 16.0375 24.369 13.7303 24.3893 11.3957L-7.60949 11.1176C-7.59285 9.20314 -7.19509 7.31119 -6.43943 5.55212L22.9625 18.1826ZM24.3893 11.3957C24.4096 9.06107 23.9647 6.74581 23.0806 4.58498L-6.53633 16.7026C-7.26131 14.9306 -7.62612 13.032 -7.60949 11.1176L24.3893 11.3957ZM23.0806 4.58498C22.1966 2.4242 20.891 0.461106 19.2401 -1.18973L-3.387 21.438C-4.74077 20.0843 -5.81137 18.4745 -6.53633 16.7026L23.0806 4.58498ZM19.2401 -1.18973C17.5893 -2.84053 15.6262 -4.14603 13.4654 -5.03004L1.34839 24.5871C-0.42349 23.8622 -2.03326 22.7917 -3.387 21.438L19.2401 -1.18973ZM13.4654 -5.03004C11.3046 -5.91406 8.98946 -6.35889 6.655 -6.3386L6.93305 25.6602C5.01875 25.6768 3.12027 25.3121 1.34839 24.5871L13.4654 -5.03004ZM6.655 -6.3386C4.32051 -6.31832 2.01342 -5.83332 -0.131644 -4.91189L12.4982 24.4903C10.7392 25.2458 8.84738 25.6436 6.93305 25.6602L6.655 -6.3386ZM-0.131644 -4.91189C-2.27669 -3.99047 -4.2168 -2.65107 -5.83874 -0.971801L17.1782 21.2593C15.8481 22.6363 14.2572 23.7347 12.4982 24.4903L-0.131644 -4.91189ZM-5.64117 -1.17278L-8.99858 2.18296L13.6232 24.816L16.9806 21.4603L-5.64117 -1.17278ZM-9.0165 2.20089C-13.4886 6.6849 -16 12.7594 -16 19.0924H16C16 21.2316 15.1516 23.2835 13.6411 24.7981L-9.0165 2.20089ZM-16 19.0924C-16 25.4254 -13.4886 31.4999 -9.0165 35.9839L13.6411 13.3867C15.1516 14.9013 16 16.9531 16 19.0924H-16ZM-9.01348 35.9869C-6.79033 38.2148 -4.14873 39.9813 -1.24056 41.1849L10.9961 11.6169C11.9846 12.026 12.8825 12.6264 13.6381 13.3837L-9.01348 35.9869ZM-1.24056 41.1849C1.66761 42.3884 4.78497 43.0053 7.93229 43L7.87843 11C8.94813 10.9982 10.0077 11.2079 10.9961 11.6169L-1.24056 41.1849ZM7.87336 43C11.0207 43.0062 14.1383 42.3904 17.0469 41.1879L4.82026 11.6157C5.80859 11.2071 6.86792 10.9979 7.93736 11L7.87336 43ZM17.0469 41.1879C19.9554 39.9853 22.5977 38.2197 24.8216 35.9926L2.17835 13.3811C2.93407 12.6243 3.83191 12.0244 4.82026 11.6157L17.0469 41.1879ZM24.8135 36.0007L28.1694 32.645L5.54229 10.0173L2.18645 13.373L24.8135 36.0007ZM27.9711 32.8399C29.6504 31.218 30.9899 29.2779 31.9114 27.1328L2.50946 14.5023C3.26512 12.7433 4.36354 11.1524 5.7406 9.82237L27.9711 32.8399ZM31.9114 27.1328C32.8329 24.9876 33.3179 22.6804 33.3382 20.3459L1.3394 20.0678C1.35604 18.1534 1.75377 16.2615 2.50946 14.5023L31.9114 27.1328ZM33.3382 20.3459C33.3585 18.0113 32.9136 15.696 32.0295 13.5352L2.41256 25.6528C1.68758 23.8808 1.32277 21.9823 1.3394 20.0678L33.3382 20.3459ZM32.0295 13.5352C31.1454 11.3743 29.8398 9.41123 28.189 7.7605L5.56189 30.3882C4.20823 29.0346 3.13758 27.4248 2.41256 25.6528L32.0295 13.5352ZM28.189 7.7605C26.5382 6.10977 24.5752 4.80424 22.4143 3.92018L10.2973 33.5374C8.5253 32.8124 6.91555 31.7418 5.56189 30.3882L28.189 7.7605ZM22.4143 3.92018C20.2535 3.03616 17.9384 2.59134 15.6039 2.61162L15.8819 34.6104C13.9676 34.6271 12.0692 34.2623 10.2973 33.5374L22.4143 3.92018ZM15.6039 2.61162C13.2693 2.63191 10.9622 3.11694 8.81725 4.03834L21.4471 33.4405C19.6882 34.196 17.7963 34.5938 15.8819 34.6104L15.6039 2.61162ZM8.81725 4.03834C6.67222 4.95975 4.7321 6.29914 3.11015 7.97843L26.1271 30.2095C24.797 31.5866 23.2061 32.6849 21.4471 33.4405L8.81725 4.03834ZM2.18912 -9.00285L-1.16672 -5.64869L21.455 16.9844L24.8109 13.6302L2.18912 -9.00285ZM-0.971066 -5.84092C-2.65038 -4.21903 -3.98986 -2.27893 -4.91135 -0.133829L24.4905 12.4966C23.7349 14.2557 22.6365 15.8466 21.2594 17.1766L-0.971066 -5.84092ZM-4.91135 -0.133829C-5.83286 2.01129 -6.31791 4.31847 -6.3382 6.65308L25.6606 6.93115C25.644 8.8456 25.2462 10.7376 24.4905 12.4966L-4.91135 -0.133829ZM-6.3382 6.65308C-6.35848 8.98768 -5.91361 11.3029 -5.02952 13.4638L24.5874 1.34617C25.3124 3.11812 25.6772 5.01671 25.6606 6.93115L-6.3382 6.65308ZM-5.02952 13.4638C-4.14543 15.6246 -2.83985 17.5877 -1.189 19.2385L21.4381 -3.38925C22.7918 -2.03555 23.8625 -0.425773 24.5874 1.34617L-5.02952 13.4638ZM-1.189 19.2385C0.461881 20.8893 2.42497 22.1948 4.5857 23.0788L16.7027 -6.5384C18.4746 -5.8135 20.0843 -4.74298 21.4381 -3.38925L-1.189 19.2385ZM4.5857 23.0788C6.7464 23.9628 9.06155 24.4076 11.3961 24.3874L11.1181 -7.61144C13.0324 -7.62808 14.9309 -7.26328 16.7027 -6.5384L4.5857 23.0788ZM11.3961 24.3874C13.7306 24.3671 16.0377 23.8821 18.1828 22.9606L5.55288 -6.44151C7.31188 -7.1971 9.20373 -7.59481 11.1181 -7.61144L11.3961 24.3874ZM18.1828 22.9606C20.3279 22.0392 22.268 20.6998 23.8898 19.0205L0.87293 -3.21054C2.20292 -4.58754 3.79384 -5.6859 5.55288 -6.44151L18.1828 22.9606ZM23.6923 19.2215L27.0481 15.8674L4.42634 -6.76569L1.0705 -3.41153L23.6923 19.2215ZM27.0367 15.8788C24.9282 17.982 22.0718 19.163 19.0938 19.163V-12.837C13.5989 -12.837 8.32824 -10.6578 4.43778 -6.77711L27.0367 15.8788ZM19.0938 19.163C16.1159 19.163 13.2595 17.982 11.151 15.8788L33.7499 -6.77711C29.8595 -10.6578 24.5888 -12.837 19.0938 -12.837V19.163ZM11.1164 15.8442C9.01625 13.7364 7.83694 10.8822 7.83694 7.90659H39.8369C39.8369 2.41509 37.6605 -2.85251 33.7845 -6.74249L11.1164 15.8442ZM7.83694 7.90659C7.83694 4.93098 9.01625 2.07674 11.1164 -0.0310064L33.7845 22.5557C37.6605 18.6657 39.8369 13.3981 39.8369 7.90659H7.83694ZM11.1396 -0.0542012L7.78217 3.30154L30.4039 25.9346L33.7614 22.5789L11.1396 -0.0542012ZM7.97783 3.10931C6.29859 4.73112 4.95907 6.67119 4.03754 8.8164L33.4394 21.4469C32.6837 23.206 31.5853 24.7969 30.2083 26.1268L7.97783 3.10931ZM4.03754 8.8164C3.116 10.9616 2.63098 13.2688 2.6107 15.6033L34.6095 15.8814C34.5928 17.7958 34.1951 19.6877 33.4394 21.4469L4.03754 8.8164ZM2.6107 15.6033C2.59041 17.9379 3.03528 20.2532 3.91937 22.414L33.5363 10.2964C34.2613 12.0684 34.6261 13.9669 34.6095 15.8814L2.6107 15.6033ZM3.91937 22.414C4.8035 24.5749 6.10912 26.538 7.75989 28.1887L30.387 5.56098C31.7407 6.9146 32.8113 8.52435 33.5363 10.2964L3.91937 22.414ZM7.75989 28.1887C9.41067 29.8394 11.3737 31.145 13.5346 32.029L25.6516 2.41183C27.4236 3.13678 29.0333 4.20735 30.387 5.56098L7.75989 28.1887ZM13.5346 32.029C15.6954 32.913 18.0105 33.3579 20.345 33.3376L20.0669 1.33879C21.9812 1.32215 23.8797 1.68691 25.6516 2.41183L13.5346 32.029ZM20.345 33.3376C22.6794 33.3173 24.9865 32.8323 27.1316 31.9109L14.5018 2.50872C16.2608 1.7531 18.1527 1.35542 20.0669 1.33879L20.345 33.3376ZM27.1316 31.9109C29.2768 30.9894 31.2169 29.65 32.8387 27.9708L9.82182 5.73968C11.1518 4.36272 12.7427 3.26434 14.5018 2.50872L27.1316 31.9109ZM32.6412 28.1718L35.9986 24.816L13.3768 2.18296L10.0194 5.5387L32.6412 28.1718ZM36.0165 24.7981C40.4885 20.3141 43 14.2396 43 7.90659H11C11 5.76733 11.8484 3.71547 13.3589 2.20089L36.0165 24.7981ZM43 7.90659C43 1.57357 40.4885 -4.50091 36.0165 -8.98492L13.3589 13.6123C11.8484 12.0977 11 10.0458 11 7.90659H43ZM35.9898 -9.01158C31.5055 -13.4867 25.429 -16 19.0938 -16V16C16.9536 16 14.9006 15.1509 13.3856 13.6389L35.9898 -9.01158ZM19.0938 -16C12.7587 -16 6.68215 -13.4867 2.19786 -9.01158L24.8021 13.6389C23.2871 15.1509 21.2341 16 19.0938 16V-16Z" fill="#214E8A" mask="url(#path-1-inside-1_912_8211)"/>
<mask id="path-3-inside-2_912_8211" fill="white">
<path d="M15.7377 9.025L9.02599 15.7365C8.87488 15.8824 8.75434 16.057 8.67142 16.25C8.5885 16.4431 8.54485 16.6507 8.54303 16.8608C8.5412 17.0708 8.58123 17.2792 8.66079 17.4736C8.74034 17.6681 8.85783 17.8447 9.00638 17.9933C9.15494 18.1418 9.33159 18.2593 9.52604 18.3388C9.72049 18.4184 9.92883 18.4584 10.1389 18.4566C10.349 18.4548 10.5566 18.4111 10.7496 18.3282C10.9427 18.2453 11.1173 18.1248 11.2632 17.9736L17.9749 11.2622C18.126 11.1162 18.2465 10.9416 18.3295 10.7486C18.4124 10.5556 18.456 10.348 18.4579 10.1379C18.4597 9.92781 18.4196 9.71948 18.3401 9.52504C18.2605 9.3306 18.1431 9.15395 17.9945 9.00539C17.8459 8.85684 17.6693 8.73936 17.4748 8.65981C17.2804 8.58026 17.0721 8.54023 16.862 8.54205C16.6519 8.54388 16.4443 8.58752 16.2512 8.67044C16.0582 8.75336 15.8836 8.87389 15.7377 9.025Z"/>
</mask>
<path d="M15.7377 9.025L9.02599 15.7365C8.87488 15.8824 8.75434 16.057 8.67142 16.25C8.5885 16.4431 8.54485 16.6507 8.54303 16.8608C8.5412 17.0708 8.58123 17.2792 8.66079 17.4736C8.74034 17.6681 8.85783 17.8447 9.00638 17.9933C9.15494 18.1418 9.33159 18.2593 9.52604 18.3388C9.72049 18.4184 9.92883 18.4584 10.1389 18.4566C10.349 18.4548 10.5566 18.4111 10.7496 18.3282C10.9427 18.2453 11.1173 18.1248 11.2632 17.9736L17.9749 11.2622C18.126 11.1162 18.2465 10.9416 18.3295 10.7486C18.4124 10.5556 18.456 10.348 18.4579 10.1379C18.4597 9.92781 18.4196 9.71948 18.3401 9.52504C18.2605 9.3306 18.1431 9.15395 17.9945 9.00539C17.8459 8.85684 17.6693 8.73936 17.4748 8.65981C17.2804 8.58026 17.0721 8.54023 16.862 8.54205C16.6519 8.54388 16.4443 8.58752 16.2512 8.67044C16.0582 8.75336 15.8836 8.87389 15.7377 9.025Z" fill="#214E8A"/>
<path d="M15.7377 9.025L27.0512 20.3389L27.1495 20.2406L27.2461 20.1406L15.7377 9.025ZM9.02599 15.7365L20.1412 27.2453L20.2412 27.1487L20.3395 27.0504L9.02599 15.7365ZM11.2632 17.9736L-0.0503349 6.65978L-0.148649 6.7581L-0.24524 6.8581L11.2632 17.9736ZM17.9749 11.2622L6.85965 -0.246598L6.75965 -0.15001L6.66133 -0.0516987L17.9749 11.2622ZM4.42411 -2.28886L-2.28756 4.42262L20.3395 27.0504L27.0512 20.3389L4.42411 -2.28886ZM-2.08924 4.22772C-3.76858 5.84964 -5.10805 7.78975 -6.02953 9.93482L23.3724 22.5653C22.6167 24.3243 21.5183 25.9152 20.1412 27.2453L-2.08924 4.22772ZM-6.02953 9.93482C-6.95103 12.0799 -7.43608 14.3871 -7.45637 16.7217L24.5424 16.9998C24.5258 18.9143 24.128 20.8062 23.3724 22.5653L-6.02953 9.93482ZM-7.45637 16.7217C-7.47666 19.0563 -7.03177 21.3716 -6.14769 23.5324L23.4693 11.4148C24.1942 13.1868 24.5591 15.0853 24.5424 16.9998L-7.45637 16.7217ZM-6.14769 23.5324C-5.26361 25.6932 -3.95805 27.6563 -2.30717 29.3071L20.3199 6.6794C21.6737 8.03313 22.7443 9.64291 23.4693 11.4148L-6.14769 23.5324ZM-2.30717 29.3071C-0.656368 30.9579 1.3067 32.2634 3.46753 33.1474L15.5845 3.53025C17.3565 4.25519 18.9662 5.32574 20.3199 6.6794L-2.30717 29.3071ZM3.46753 33.1474C5.62831 34.0315 7.94348 34.4763 10.2779 34.456L9.99989 2.45721C11.9142 2.44057 13.8127 2.80534 15.5845 3.53025L3.46753 33.1474ZM10.2779 34.456C12.6125 34.4357 14.9196 33.9507 17.0646 33.0293L4.43471 3.62714C6.19362 2.87159 8.08547 2.47384 9.99989 2.45721L10.2779 34.456ZM17.0646 33.0293C19.2096 32.1079 21.1498 30.7684 22.7717 29.0892L-0.24524 6.8581C1.08478 5.48107 2.67571 4.38273 4.43471 3.62714L17.0646 33.0293ZM22.5768 29.2875L29.2884 22.576L6.66133 -0.0516987L-0.0503349 6.65978L22.5768 29.2875ZM29.0901 22.7709C30.7694 21.1491 32.1089 19.209 33.0304 17.0638L3.62851 4.43338C4.38417 2.67431 5.48259 1.08338 6.85965 -0.246598L29.0901 22.7709ZM33.0304 17.0638C33.9519 14.9188 34.437 12.6116 34.4572 10.2769L2.45846 9.99886C2.47509 8.08431 2.87289 6.19236 3.62851 4.43338L33.0304 17.0638ZM34.4572 10.2769C34.4775 7.94235 34.0327 5.62708 33.1486 3.46624L3.53162 15.5838C2.80663 13.8119 2.44182 11.9133 2.45846 9.99886L34.4572 10.2769ZM33.1486 3.46624C32.2645 1.30535 30.9589 -0.657714 29.3081 -2.30847L6.68094 20.3193C5.32726 18.9656 4.25662 17.3558 3.53162 15.5838L33.1486 3.46624ZM29.3081 -2.30847C27.6572 -3.95931 25.6941 -5.26478 23.5333 -6.14878L11.4163 23.4684C9.64449 22.7435 8.03471 21.673 6.68094 20.3193L29.3081 -2.30847ZM23.5333 -6.14878C21.3726 -7.03279 19.0574 -7.47763 16.7229 -7.45734L17.001 24.5414C15.0867 24.5581 13.1882 24.1933 11.4163 23.4684L23.5333 -6.14878ZM16.7229 -7.45734C14.3885 -7.43706 12.0814 -6.95206 9.9363 -6.03063L22.5662 23.3715C20.8072 24.1271 18.9153 24.5248 17.001 24.5414L16.7229 -7.45734ZM9.9363 -6.03063C7.79129 -5.10923 5.85117 -3.76985 4.2292 -2.09054L27.2461 20.1406C25.9161 21.5176 24.3251 22.616 22.5662 23.3715L9.9363 -6.03063Z" fill="#214E8A" mask="url(#path-3-inside-2_912_8211)"/>
</svg>
