<svg width="33" height="33" viewBox="0 0 33 33" fill="none" xmlns="http://www.w3.org/2000/svg">
<mask id="path-1-inside-1_912_8203" fill="white">
<path d="M16.5002 0C7.40173 0 0 7.40219 0 16.5007C0.000765828 25.5983 7.4028 33 16.5002 33C25.5984 33 33.0005 25.5984 33.0005 16.5005C33.0003 7.40219 25.5984 0 16.5002 0ZM16.5002 2.29749C19.8731 2.29749 22.9744 3.48008 25.4132 5.45147L5.45162 25.4129C3.48054 22.9742 2.29779 19.8731 2.29748 16.5005C2.29748 8.66902 8.66887 2.29749 16.5002 2.29749ZM16.5002 30.7025C12.8674 30.7025 9.54942 29.3308 7.03505 27.0789L27.0791 7.0349C29.3311 9.54927 30.7028 12.8676 30.7028 16.5007C30.7028 24.3316 24.3314 30.7025 16.5002 30.7025Z"/>
</mask>
<path d="M16.5002 0C7.40173 0 0 7.40219 0 16.5007C0.000765828 25.5983 7.4028 33 16.5002 33C25.5984 33 33.0005 25.5984 33.0005 16.5005C33.0003 7.40219 25.5984 0 16.5002 0ZM16.5002 2.29749C19.8731 2.29749 22.9744 3.48008 25.4132 5.45147L5.45162 25.4129C3.48054 22.9742 2.29779 19.8731 2.29748 16.5005C2.29748 8.66902 8.66887 2.29749 16.5002 2.29749ZM16.5002 30.7025C12.8674 30.7025 9.54942 29.3308 7.03505 27.0789L27.0791 7.0349C29.3311 9.54927 30.7028 12.8676 30.7028 16.5007C30.7028 24.3316 24.3314 30.7025 16.5002 30.7025Z" fill="#214E8A"/>
<path d="M0 16.5007H-2.37637V16.5009L0 16.5007ZM33.0005 16.5005H35.3768V16.5005L33.0005 16.5005ZM25.4132 5.45147L27.0936 7.13182L28.9615 5.26396L26.9071 3.60337L25.4132 5.45147ZM5.45162 25.4129L3.60346 26.9067L5.26401 28.9612L7.13196 27.0933L5.45162 25.4129ZM2.29748 16.5005H-0.0788816L-0.0788816 16.5008L2.29748 16.5005ZM7.03505 27.0789L5.35471 25.3986L3.57926 27.174L5.44966 28.8491L7.03505 27.0789ZM27.0791 7.0349L28.8492 5.44945L27.1741 3.57917L25.3987 5.35455L27.0791 7.0349ZM16.5002 -2.37637C6.08921 -2.37637 -2.37637 6.08985 -2.37637 16.5007H2.37637C2.37637 8.71454 8.71425 2.37637 16.5002 2.37637V-2.37637ZM-2.37637 16.5009C-2.37549 26.9108 6.09038 35.3764 16.5002 35.3764V30.6236C8.71523 30.6236 2.37702 24.2858 2.37637 16.5005L-2.37637 16.5009ZM16.5002 35.3764C26.9107 35.3764 35.3768 26.911 35.3768 16.5005H30.6241C30.6241 24.2859 24.2861 30.6236 16.5002 30.6236V35.3764ZM35.3768 16.5005C35.3766 6.08983 26.9109 -2.37637 16.5002 -2.37637V2.37637C24.2859 2.37637 30.624 8.71455 30.6241 16.5006L35.3768 16.5005ZM16.5002 4.67385C19.3077 4.67385 21.8862 5.65613 23.9194 7.29957L26.9071 3.60337C24.0625 1.30403 20.4385 -0.0788814 16.5002 -0.0788814V4.67385ZM23.7329 3.77112L3.77129 23.7326L7.13196 27.0933L27.0936 7.13182L23.7329 3.77112ZM7.29979 23.9192C5.65652 21.886 4.67411 19.3076 4.67385 16.5003L-0.0788816 16.5008C-0.0785239 20.4386 1.30455 24.0624 3.60346 26.9067L7.29979 23.9192ZM4.67385 16.5005C4.67385 9.9814 9.98135 4.67385 16.5002 4.67385V-0.0788814C7.35639 -0.0788814 -0.0788816 7.35664 -0.0788816 16.5005H4.67385ZM16.5002 28.3261C13.4772 28.3261 10.7177 27.187 8.62044 25.3087L5.44966 28.8491C8.38113 31.4745 12.2577 33.0789 16.5002 33.0789V28.3261ZM8.7154 28.7593L28.7594 8.71524L25.3987 5.35455L5.35471 25.3986L8.7154 28.7593ZM25.3089 8.62035C27.1873 10.7175 28.3265 13.4773 28.3265 16.5007H33.0792C33.0792 12.258 31.4749 8.38101 28.8492 5.44945L25.3089 8.62035ZM28.3265 16.5007C28.3265 23.019 23.0191 28.3261 16.5002 28.3261V33.0789C25.6437 33.0789 33.0792 25.6442 33.0792 16.5007H28.3265Z" fill="#214E8A" mask="url(#path-1-inside-1_912_8203)"/>
</svg>
