<svg width="24" height="35" viewBox="0 0 24 35" fill="none" xmlns="http://www.w3.org/2000/svg">
<path d="M20 0C22.2 0 24 2.0432 24 4.54045V33.3723C24 34.2804 23.4 34.9615 22.6 34.9615C22.3 34.9615 22.1 34.8479 21.8 34.7344L12.2 27.4697C12.1 27.3562 11.9 27.3562 11.8 27.4697L2.2 34.7344C1.6 35.1885 0.7 35.075 0.3 34.2804C0.1 33.9399 0 33.7128 0 33.3723V4.54045C0 2.0432 1.8 0 4 0H20ZM20 2.27022H4C2.9 2.27022 2.1 3.17831 2 4.42694V32.1237L10.7 25.54C11.5 24.9725 12.4 24.9725 13.2 25.4265L13.4 25.54L22.1 32.1237V4.54045C22.1 3.29183 21.3 2.38374 20.2 2.27022H20Z" fill="#214E8A"/>
</svg>
