<svg width="43" height="48" viewBox="0 0 43 48" fill="none" xmlns="http://www.w3.org/2000/svg">
<path d="M19.5361 0.576864C19.1097 0.692248 18.7931 1.07446 18.7221 1.55763C18.6575 2.04081 18.8513 2.51677 19.226 2.76917C22.6823 5.51677 26.4939 9.40379 28.8906 13.5576C29.0392 14.0264 29.4333 14.3437 29.8726 14.3509C30.3184 14.3653 30.7254 14.0769 30.8934 13.6153C31.0678 13.161 30.9709 12.6346 30.6479 12.2884C28.025 7.75235 24.1035 3.69225 20.4664 0.807633C20.2338 0.60571 19.9302 0.526383 19.6395 0.576864C19.6071 0.576864 19.5684 0.576864 19.5361 0.576864ZM27.8053 0.576864C27.3919 0.677825 27.0753 1.0384 26.9848 1.49273C26.8944 1.95427 27.0559 2.43023 27.3919 2.71148C27.9797 3.28119 29.1103 4.37013 30.0794 5.65379C31.0484 6.93744 31.8689 8.43023 32.0433 9.46148C32.0433 9.94465 32.3082 10.3846 32.7087 10.5721C33.1092 10.7596 33.5744 10.6514 33.878 10.3124C34.1881 9.96629 34.2786 9.44706 34.1106 8.99994C33.807 7.17542 32.7668 5.52398 31.6815 4.09609C30.5962 2.66821 29.4785 1.48552 28.839 0.865325C28.587 0.612922 28.2446 0.504748 27.9087 0.576864C27.8764 0.576864 27.8376 0.576864 27.8053 0.576864ZM11.2152 2.76917C10.7306 2.80523 10.272 3.07927 9.9231 3.51917C9.21893 4.4134 9.29645 5.73311 10.0782 6.51917L18.0373 15.8653C18.5477 16.4783 18.58 17.185 18.2957 17.4807C18.005 17.7836 17.4688 17.7475 16.8486 17.1346L6.51205 6.80763C5.73035 6.02879 4.52226 6.09369 3.82455 6.98071C3.12683 7.86773 3.19789 9.25235 3.97959 10.0384L13.6443 20.3653C13.6443 20.3653 14.3291 21.1947 13.9027 21.8653C13.4763 22.5432 12.6623 21.6346 12.6623 21.6346L3.25604 13.0961C2.46788 12.3172 1.26625 12.4326 0.568537 13.3269C-0.13564 14.2139 -0.0581152 15.548 0.723585 16.3269L9.61301 25.0961C9.61301 25.0961 10.5691 26.3653 10.0782 26.9999C9.62593 27.5841 8.42431 26.5961 8.42431 26.5961L3.46277 21.7499C2.68107 20.9711 1.47298 21.0937 0.775268 21.9807C0.0775519 22.8749 0.142155 24.1947 0.930316 24.9807C0.930316 24.9807 11.3896 36.0432 15.3498 38.9422C20.1692 42.4687 26.0416 45.137 29.3558 38.2499C32.3663 36.9014 34.2915 35.7187 35.2993 32.8269C36.5526 29.2427 36.979 24.9086 39.0205 22.3846C41.4431 19.3918 43.8851 14.9278 42.2248 13.2692C40.5645 11.6105 38.6845 12.4903 36.9531 14.423C35.1572 16.4278 33.4323 19.5072 32.0433 20.1346C30.5833 20.7908 29.5625 19.7884 29.5625 19.7884L12.6106 3.2884C12.2165 2.89898 11.6997 2.73311 11.2152 2.76917ZM2.99762 35.6538C2.62292 35.7692 2.33867 36.0937 2.24176 36.512C2.14486 36.9302 2.25469 37.3701 2.53248 37.673C5.92416 41.5889 11.6222 45.4326 16.1767 47.3076C16.7452 47.5312 17.3719 47.1922 17.5721 46.5576C17.7724 45.923 17.4688 45.2235 16.9003 44.9999C12.701 43.2692 7.1064 39.548 4.08296 36.0576C3.83747 35.7403 3.46923 35.5889 3.10099 35.6538C3.06869 35.6538 3.02993 35.6538 2.99762 35.6538Z" fill="#F3B13E"/>
</svg>
